<?xml version="1.0" encoding="utf-8"?>
<!-- Generator: Adobe Illustrator 27.9.0, SVG Export Plug-In . SVG Version: 6.00 Build 0)  -->
<svg version="1.1" id="Capa_1" xmlns="http://www.w3.org/2000/svg" xmlns:xlink="http://www.w3.org/1999/xlink" x="0px" y="0px"
	 viewBox="0 0 1350 1080" style="enable-background:new 0 0 1350 1080;" xml:space="preserve">
<style type="text/css">
	.st0{fill:#60992C;}
	.st1{fill:url(#SVGID_1_);}
	.st2{fill:#1F4226;}
</style>
<g>
	<g>
		<path class="st0" d="M1004.43,391.64c-6.59-3.53-14.1-5.51-22.1-5.51c-11.89,0-22.76,4.39-31.06,11.67
			c-9.91,8.63-16.17,21.35-16.17,35.54c0,26.08,21.15,47.23,47.23,47.23c2.6,0,5.16-0.2,7.63-0.62c6.69-1.08,12.9-3.57,18.31-7.15
			c8.21-5.4,14.62-13.3,18.16-22.61c2.01-5.23,3.11-10.9,3.11-16.85C1029.54,415.26,1019.35,399.55,1004.43,391.64z M975.98,456.27
			c-9.82-2.98-16.99-12.11-16.99-22.92c0-4.66,1.34-9,3.66-12.68c4.21-6.75,11.73-11.25,20.29-11.25
			c13.23,0,23.94,10.72,23.94,23.93c0,13.23-10.72,23.94-23.94,23.94C980.52,457.3,978.18,456.95,975.98,456.27z"/>
		<path class="st0" d="M1039.62,550.04h-0.02c-2.38,0-4.7,0.18-6.97,0.53c-6.7,0.97-12.93,3.38-18.4,6.9
			c-13.12,8.36-21.82,23.05-21.82,39.79c0,13.28,5.47,25.26,14.29,33.8c4.79,4.7,10.59,8.36,17.01,10.65
			c0.99,0.37,1.99,0.7,3.02,0.97c4.1,1.17,8.41,1.79,12.9,1.79c26.08,0,47.23-21.13,47.23-47.21S1065.71,550.04,1039.62,550.04z
			 M1040.24,621.19c-2.8,0-5.51-0.48-8.01-1.37c-9.29-3.29-15.93-12.16-15.93-22.57c0-12.69,9.88-23.08,22.37-23.89
			c0.51-0.04,1.04-0.05,1.57-0.05c13.23,0,23.94,10.72,23.94,23.94C1064.19,610.48,1053.47,621.19,1040.24,621.19z"/>
		<path class="st0" d="M980.77,744.16v-0.02c-0.77-8.23-3.66-15.84-8.1-22.28c-3.9-5.67-9-10.44-14.94-13.94
			c-3.37-2.01-6.99-3.59-10.83-4.68c-4.17-1.23-8.58-1.87-13.13-1.87c-26.08,0-47.23,21.13-47.23,47.21
			c0,8.32,2.16,16.13,5.95,22.92c8.05,14.49,23.52,24.29,41.29,24.29c2.1,0,4.17-0.15,6.2-0.42c23.14-3.02,41.01-22.81,41.01-46.79
			C980.98,747.08,980.9,745.62,980.77,744.16z M934.37,772.53c-11.82,0-21.64-8.56-23.58-19.83c-0.24-1.34-0.37-2.71-0.37-4.12
			c0-12.79,10.02-23.23,22.65-23.91c0.42-0.02,0.86-0.04,1.3-0.04c13.23,0,23.94,10.72,23.94,23.94
			C958.31,761.81,947.59,772.53,934.37,772.53z"/>
		<polygon class="st0" points="1034.54,556.66 1015.82,562.51 1014.23,557.46 989.96,479.96 989.26,477.73 1007.97,471.87 
			1008.27,472.81 1032.63,550.57 		"/>
		<polygon class="st0" points="1028.19,634.66 1023.71,641.7 972.67,721.86 971.32,723.98 954.38,713.19 957.73,707.92 
			1006.69,631.05 1011.27,623.87 		"/>
	</g>
	<linearGradient id="SVGID_1_" gradientUnits="userSpaceOnUse" x1="570.2389" y1="717.6467" x2="841.8923" y2="143.4901">
		<stop  offset="0" style="stop-color:#204428"/>
		<stop  offset="0.2318" style="stop-color:#5D962B"/>
	</linearGradient>
	<path class="st1" d="M679.52,186.48c-198.51,0-359.43,160.92-359.43,359.43s160.92,359.44,359.43,359.44
		c74.25,0,143.23-22.52,200.5-61.08l-33.27-38.51c-48.2,31.06-105.62,49.08-167.23,49.08c-21.21,0-41.93-2.14-61.94-6.21
		c-0.03-0.18-3.8-0.96-9.16-2.1c0.24,0.09,0.48,0.18,0.72,0.26c-1.18-0.28-2.36-0.57-3.54-0.86c0.98,0.21,1.92,0.41,2.82,0.6
		c-11.47-4.29-31.87-16.07-45.57-39.4c-11.82-20.12-11.13-41.03-10.67-51.35c1.32-29.46,14.08-49.65,31.75-77.59
		c19.26-30.47,39.11-50.58,56.42-68.12c18.15-18.39,35.31-32.6,40.3-36.62c8.38-6.75,12.3-9.62,12.31-9.62
		c6.76-4.94,9.51-6.41,14.91-10.96c9.15-7.72,10.43-11.24,10.57-13.98c0.04-0.74,0.15-3.69-1.7-6.52c-1.86-2.85-5.12-4.69-8.26-4.86
		c-1.69-0.09-4.86-0.17-8.95,2.34c-58.27,35.67-96.66,85.7-96.66,85.7c-31.27,40.74-46.92,61.1-56.53,82.08
		c-11.04,24.11-23.87,53.16-17.55,88.88c2.73,15.4,8.22,27.57,12.86,35.96c-101.57-50.68-171.35-155.6-171.35-276.83
		c0-170.78,138.44-309.21,309.21-309.21c89.76,0,170.59,38.25,227.08,99.35l32.89-38.05C874.06,229.17,781.78,186.48,679.52,186.48z
		"/>
	<path class="st0" d="M537.06,682.19l12.43-24.73c-0.03-26.06,3.95-85.11,45.83-133.04c31-35.48,69.34-49.5,109.95-64.35
		c42.55-15.56,80.01-21.15,105.79-23.33c-1.68,19.41-5.77,48.29-16.97,81.55c-11.99,35.61-30.73,91.27-83.52,131.35
		c-15.9,12.07-50.23,34.37-103.89,41.27c-8.21,7.82-16.43,15.64-24.64,23.46c27.91-0.31,106.3-5.06,168.49-62.64
		c50.8-47.04,67.09-107.39,79.2-152.27c10.29-38.12,13.46-71.27,14.34-95.03c-20.04,0.93-48.02,3.39-80.79,10.17
		c-40.34,8.35-84.69,17.54-130.65,47.5c-27.47,17.91-71.06,46.33-92.04,102.45C521.35,616.02,531.59,662.78,537.06,682.19z"/>
	<path class="st2" d="M603.12,848.2"/>
	<path class="st2" d="M614.72,855.4"/>
</g>
</svg>
